# xmcd
#
# Track frame offsets:
#	150
#	20473
#	38332
#	52576
#	69677
#	90074
#	107772
#	126526
#	137178
#	152928
#	171829
#	193225
#	206725
#	225403
#	244716
#	261640
#	280456
#	295105
#	312353
#	330427
#
# Disc length: 4599 seconds
#
# Revision: 1
# Processed by: cddbd v1.5.2PL0 Copyright (c) Steve Scherf et al.
# Submitted via: audiograbber 1.83.01
#
DISCID=2111f514
DTITLE=Razni izvodjaci - Ljubav na dalmatinski
DYEAR=2013
DGENRE=General World
TTITLE0=Zora bila
TTITLE1=Vilo moja
TTITLE2=Ruzo crvena
TTITLE3=Sad kada dosla si
TTITLE4=Kad je posla ca
TTITLE5=Skrinja jubavi
TTITLE6=Moj lipi andjele
TTITLE7=Oj ti duso, duse moje
TTITLE8=Ljubav ce prominiti sve
TTITLE9=Da te mogu pismom zvati
TTITLE10=Jute san se zajubija
TTITLE11=Projdi vilo
TTITLE12=Ne diraj moju ljubav
TTITLE13=Uvijek cu te voljeti
TTITLE14=Oci boje lavande
TTITLE15=Ovo mora jednom stat
TTITLE16=I sve dok disen
TTITLE17=Kako cu je pripoznat
TTITLE18=Ja cu samo tvoja bit
TTITLE19=Htio bi te zaboravit
EXTD=
EXTT0=
EXTT1=
EXTT2=
EXTT3=
EXTT4=
EXTT5=
EXTT6=
EXTT7=
EXTT8=
EXTT9=
EXTT10=
EXTT11=
EXTT12=
EXTT13=
EXTT14=
EXTT15=
EXTT16=
EXTT17=
EXTT18=
EXTT19=
PLAYORDER=
